Patient4_TMGait_0pt6_01_right_14_EMG.mot
version=1
nRows=16
nColumns=33
inDegrees=no
endheader
time	1LAddLong	2LGlutMax	3LGlutMed	4LIliopsoas	5LSemiMemb	6LBicFemLong	7LRecFem	8LVastMed	9LVastLat	10LGasMed	11LTibAnt	12lTibPost	13LPeroneusLong	14LSol	15LExtDigLong	16LFlexDigLong	17RAddLong	18RGlutMax	19RGlutMed	20RIliopsoas	21RSemiMemb	22RBicFemLong	23RRecFem	24RVastMed	25RVastLat	26RGasMed	27RTibAnt	28RTibPost	29RPeroneusLong	30RSol	31RExtDigLong	32RFlexDigLong
17.69	0.014038	-0.075378	-0.054169	0.011139	0.002136	-0.020447	0.12985	0.014038	-0.19638	0.028839	-0.076752	0.00473	-0.12802	-0.15808	-0.41565	-0.004272	0.013428	0.034637	-0.29755	0.24063	-0.043945	0.056458	-0.21576	-0.13107	0.004425	0.011597	-0.69733	-0.006561	0.30899	-0.28976	0.001221	-0.005646
17.691	0.013275	-0.063019	-0.074615	0.013733	0.046997	-0.032043	0.19714	0.004272	-0.17471	0.040131	0.059052	0.00412	0.027771	-0.054016	0.059509	-0.007935	0.052948	-0.008087	-0.19073	0.050812	-0.15595	-0.013733	-0.31937	-0.12482	0.007172	0.001678	-0.32471	0.006714	0.056	-0.28183	-0.00061	-0.001221
17.692	0.002747	-0.14435	-0.001526	0.00885	0.023193	-0.036011	0.21042	0.010529	-0.13031	0.037537	0.071869	0.006866	0.092621	-0.007477	0.58716	0.014648	0.074921	-0.032196	-0.18021	-0.076447	-0.22034	-0.036469	-0.27847	-0.12207	0.002136	0.011902	0.22247	-0.005035	-0.31342	-0.31982	0.002747	-0.010529
17.693	0.012207	-0.19272	-0.1297	0.018616	0.005493	-0.010834	0.066681	0.004883	-0.090332	-0.017395	-0.09491	0.003662	-0.00946	-0.002899	0.66162	0.009613	0.042419	-0.080261	-0.00412	-0.13367	-0.08606	-0.046387	-0.2417	-0.055695	0.006256	0.002899	0.55695	-0.004425	-0.50842	-0.29587	-0.00061	-0.01709
17.694	0.017548	-0.24445	-0.08316	0.032959	0.015717	0.018158	-0.027008	0.007172	-0.031433	-0.035248	-0.15045	0.001068	-0.20065	-0.058746	0.81711	0.01236	0.009003	-0.096588	0.12817	-0.1593	0.007324	-0.083466	-0.021515	-0.005188	-0.003204	-0.003815	0.62866	-0.001373	-0.31601	-0.18723	0.000763	-0.012207
17.695	0.012665	-0.26138	-0.1152	0.035553	0.010681	0.017853	-0.03479	0.008087	0.046692	-0.002441	-0.014801	0.009918	-0.021667	-0.1149	-0.010071	0.003662	0.02243	-0.14023	0.11368	-0.15259	-0.002747	-0.17716	0.13611	0.13275	0.009766	-0.000305	0.42145	-0.009918	0.079346	0.026398	0.00061	-0.007172
17.696	0.01236	-0.24811	-0.15243	0.00061	0	0.002747	0.007019	0.009003	-0.008698	-0.00412	-0.10559	-0.008698	0.23438	-0.011749	-0.36789	0.003662	0.027008	-0.10681	0.098114	-0.10117	-0.10727	-0.19089	0.23514	0.22095	0.030823	-0.009766	-0.21805	-0.006409	0.10208	0.05249	0.000153	-0.006104
17.697	0.005035	-0.20981	-0.11826	-0.022583	-0.018005	-0.00946	0.028839	0.003204	-0.027924	-0.012817	-0.040894	0.010071	0.30365	0.12299	-0.54382	-0.010071	0.002594	-0.066376	-0.22675	-0.049591	-0.23071	-0.17761	0.012207	0.065613	0.011139	-0.016327	-0.62744	-0.005493	0.15778	0.15289	0.001678	-0.020294
17.698	0.002747	-0.20264	-0.14679	-0.016785	-0.042572	-0.00946	0.091248	0.000153	0.021057	-0.024414	0.30838	0.001068	0.16449	0.1416	-0.51865	0.000305	-0.032043	-0.04364	-0.34378	-0.10727	-0.24475	-0.049896	-0.042267	0.053711	0.01297	-0.008087	-0.40604	-0.010223	0.23666	0.18433	-0.004883	-0.016632
17.699	-0.005646	-0.2063	0.033875	-0.002899	-0.012817	-0.028076	0.12177	0.000305	0.015106	0.024567	0.6221	0.003815	-0.21668	0.023499	-0.49576	-0.009613	-0.06897	-0.016174	-0.19821	-0.13473	-0.18433	0.21179	-0.06897	0.067291	0.019684	-0.00946	-0.25879	-0.006256	0.16052	0.082855	0.00412	-0.00885
17.7	0.006409	-0.18601	-0.00061	0.009918	0.044708	-0.012054	0.13763	0.013885	-0.03067	-0.023956	0.10422	0.009308	-0.48874	-0.09903	-0.63385	-0.006104	-0.07431	0.016327	0.23102	-0.09613	-0.043182	0.12634	0.005493	0.04715	0.016479	-0.011139	-0.18951	-0.007629	-0.002289	-0.018616	0.002289	-0.006866
17.701	0.006409	-0.18402	0.02243	0.014496	0.033569	-0.005035	0.1297	0.01358	-0.043335	-0.063782	-0.16632	0.001373	-0.31296	-0.099792	-0.41168	-0.010071	-0.027466	0.047913	0.43991	0.001221	0.18585	-0.00061	0.032654	-0.020447	0.010529	-0.012207	0.031281	-0.001984	-0.062408	-0.088196	0.00412	-0.005035
17.702	0.010529	-0.19699	-0.053558	-0.02121	0.046539	-0.013733	0.12833	0.010071	-0.04303	-0.050964	-0.16312	0.018158	0.071259	-0.090027	-0.12344	-0.007782	-0.010071	-0.024109	0.17364	0.11063	0.085754	-0.089417	0.06424	-0.046997	0.011444	-0.01297	0.28702	-0.005341	-0.078888	-0.035858	0.002594	-0.001221
17.703	0.013733	-0.20721	-0.084229	-0.02594	0.050812	-0.007172	0.14481	0.018463	-0.053406	-0.005493	-0.10086	0.00412	0.069885	-0.13519	0.15701	-0.010376	0.00824	-0.072937	-0.041656	0.14297	0.07431	-0.15137	0.025635	0.000458	0.027313	-0.0177	0.45364	-0.004578	-0.050812	0.010529	0.006409	-0.002136
17.704	0.012054	-0.21225	-0.12161	-0.008392	0.030975	-0.042114	0.095978	0.002594	-0.009155	0.024414	-0.088348	0.000153	0.20493	-0.36987	0.23727	0.001526	-0.031586	-0.059814	-0.18814	0.053558	0.20599	-0.11215	-0.000458	0.011139	0.016022	0.001221	0.31601	-0.006561	0.014801	0.000458	0.000458	-0.000153
17.705	0.012512	-0.17502	-0.11673	0.007935	0.040436	-0.031281	0.1384	0.005646	-0.02655	0.028839	-0.08194	0.009766	0.3862	-0.22629	0.2626	0.000458	-0.042725	-0.093079	0.009308	0.025024	-0.039215	-0.098877	-0.005493	0.037079	0.033417	0.000153	0.12421	0.003052	0.043182	0.080719	0.001526	0.002594
